<svg width="512" height="512" viewBox="0 0 512 512" fill="none" xmlns="http://www.w3.org/2000/svg" role="img" aria-label="Refine polish revision arrows icon">

  <defs>
    <radialGradient id="tealGlow" cx="50%" cy="50%" r="50%">
      <stop offset="0%" stop-color="#2EF7EA" stop-opacity="0.82"/>
      <stop offset="48%" stop-color="#1CDAD0" stop-opacity="0.28"/>
      <stop offset="100%" stop-color="#1CDAD0" stop-opacity="0"/>
    </radialGradient>

    <radialGradient id="goldGlow" cx="50%" cy="50%" r="50%">
      <stop offset="0%" stop-color="#E8C75B" stop-opacity="0.75"/>
      <stop offset="52%" stop-color="#D9AE3B" stop-opacity="0.24"/>
      <stop offset="100%" stop-color="#D9AE3B" stop-opacity="0"/>
    </radialGradient>

    <linearGradient id="tealGoldStroke" x1="0%" y1="0%" x2="100%" y2="100%">
      <stop offset="0%" stop-color="#2EF7EA" stop-opacity="0.95"/>
      <stop offset="62%" stop-color="#22D6CE" stop-opacity="0.62"/>
      <stop offset="100%" stop-color="#E8C75B" stop-opacity="0.85"/>
    </linearGradient>

    <linearGradient id="glassFill" x1="0%" y1="0%" x2="100%" y2="100%">
      <stop offset="0%" stop-color="#2EF7EA" stop-opacity="0.18"/>
      <stop offset="50%" stop-color="#2EF7EA" stop-opacity="0.055"/>
      <stop offset="100%" stop-color="#E8C75B" stop-opacity="0.13"/>
    </linearGradient>

    <filter id="tealShadow" x="-80%" y="-80%" width="260%" height="260%">
      <feDropShadow dx="0" dy="0" stdDeviation="10" flood-color="#2EF7EA" flood-opacity="0.34"/>
      <feDropShadow dx="0" dy="0" stdDeviation="24" flood-color="#2EF7EA" flood-opacity="0.16"/>
    </filter>

    <filter id="goldShadow" x="-80%" y="-80%" width="260%" height="260%">
      <feDropShadow dx="0" dy="0" stdDeviation="9" flood-color="#E8C75B" flood-opacity="0.34"/>
      <feDropShadow dx="0" dy="0" stdDeviation="22" flood-color="#E8C75B" flood-opacity="0.14"/>
    </filter>

    <filter id="softShadow" x="-80%" y="-80%" width="260%" height="260%">
      <feDropShadow dx="0" dy="14" stdDeviation="18" flood-color="#000000" flood-opacity="0.38"/>
    </filter>
  </defs>

  <rect width="512" height="512" fill="none"/>

  <circle cx="256" cy="256" r="178" fill="url(#tealGlow)" opacity="0.18"/>
  <circle cx="278" cy="228" r="112" fill="url(#goldGlow)" opacity="0.14"/>

  <!-- circular arrows -->
  <g stroke-width="8" stroke-linecap="round" stroke-linejoin="round" fill="none">
    <path d="M337 185C370 222 374 278 344 319C309 367 242 379 193 344"
          stroke="#2EF7EA" opacity="0.76" filter="url(#tealShadow)"/>
    <path d="M344 319L341 276L382 291"
          stroke="#2EF7EA" opacity="0.76" filter="url(#tealShadow)"/>

    <path d="M175 327C142 290 138 234 168 193C203 145 270 133 319 168"
          stroke="#E8C75B" opacity="0.72" filter="url(#goldShadow)"/>
    <path d="M168 193L171 236L130 221"
          stroke="#E8C75B" opacity="0.72" filter="url(#goldShadow)"/>
  </g>

  <!-- polish core -->
  <circle cx="256" cy="256" r="50" fill="rgba(34,230,223,0.07)" stroke="#2EF7EA" stroke-opacity="0.42" stroke-width="4"/>
  <circle cx="256" cy="256" r="14" fill="#E8C75B" filter="url(#goldShadow)"/>

  <!-- sparkle ticks -->
  <g stroke="#BFFDF8" stroke-opacity="0.40" stroke-width="5" stroke-linecap="round">
    <path d="M256 138V112"/>
    <path d="M256 400V374"/>
    <path d="M374 256H400"/>
    <path d="M112 256H138"/>
  </g>

</svg>
