<svg width="512" height="512" viewBox="0 0 512 512" fill="none" xmlns="http://www.w3.org/2000/svg" role="img" aria-label="Deliver final assets folder check icon">

  <defs>
    <radialGradient id="tealGlow" cx="50%" cy="50%" r="50%">
      <stop offset="0%" stop-color="#2EF7EA" stop-opacity="0.82"/>
      <stop offset="48%" stop-color="#1CDAD0" stop-opacity="0.28"/>
      <stop offset="100%" stop-color="#1CDAD0" stop-opacity="0"/>
    </radialGradient>

    <radialGradient id="goldGlow" cx="50%" cy="50%" r="50%">
      <stop offset="0%" stop-color="#E8C75B" stop-opacity="0.75"/>
      <stop offset="52%" stop-color="#D9AE3B" stop-opacity="0.24"/>
      <stop offset="100%" stop-color="#D9AE3B" stop-opacity="0"/>
    </radialGradient>

    <linearGradient id="tealGoldStroke" x1="0%" y1="0%" x2="100%" y2="100%">
      <stop offset="0%" stop-color="#2EF7EA" stop-opacity="0.95"/>
      <stop offset="62%" stop-color="#22D6CE" stop-opacity="0.62"/>
      <stop offset="100%" stop-color="#E8C75B" stop-opacity="0.85"/>
    </linearGradient>

    <linearGradient id="glassFill" x1="0%" y1="0%" x2="100%" y2="100%">
      <stop offset="0%" stop-color="#2EF7EA" stop-opacity="0.18"/>
      <stop offset="50%" stop-color="#2EF7EA" stop-opacity="0.055"/>
      <stop offset="100%" stop-color="#E8C75B" stop-opacity="0.13"/>
    </linearGradient>

    <filter id="tealShadow" x="-80%" y="-80%" width="260%" height="260%">
      <feDropShadow dx="0" dy="0" stdDeviation="10" flood-color="#2EF7EA" flood-opacity="0.34"/>
      <feDropShadow dx="0" dy="0" stdDeviation="24" flood-color="#2EF7EA" flood-opacity="0.16"/>
    </filter>

    <filter id="goldShadow" x="-80%" y="-80%" width="260%" height="260%">
      <feDropShadow dx="0" dy="0" stdDeviation="9" flood-color="#E8C75B" flood-opacity="0.34"/>
      <feDropShadow dx="0" dy="0" stdDeviation="22" flood-color="#E8C75B" flood-opacity="0.14"/>
    </filter>

    <filter id="softShadow" x="-80%" y="-80%" width="260%" height="260%">
      <feDropShadow dx="0" dy="14" stdDeviation="18" flood-color="#000000" flood-opacity="0.38"/>
    </filter>
  </defs>

  <rect width="512" height="512" fill="none"/>

  <circle cx="256" cy="256" r="178" fill="url(#tealGlow)" opacity="0.18"/>
  <circle cx="304" cy="294" r="118" fill="url(#goldGlow)" opacity="0.14"/>

  <!-- folder -->
  <g filter="url(#softShadow)">
    <path d="M120 178C120 160.327 134.327 146 152 146H224L256 178H360C377.673 178 392 192.327 392 210V352C392 369.673 377.673 384 360 384H152C134.327 384 120 369.673 120 352V178Z"
          fill="url(#glassFill)" stroke="#2EF7EA" stroke-width="4" opacity="0.92"/>
    <path d="M120 226H392" stroke="#BFFDF8" stroke-opacity="0.18" stroke-width="4"/>
  </g>

  <!-- export/check badge -->
  <circle cx="344" cy="336" r="58" fill="rgba(4,9,12,0.82)" stroke="#E8C75B" stroke-width="5" filter="url(#goldShadow)"/>
  <path d="M316 335L337 356L376 314" stroke="#E8C75B" stroke-width="9" stroke-linecap="round" stroke-linejoin="round"/>

  <!-- export arrow -->
  <g stroke="#2EF7EA" stroke-width="8" stroke-linecap="round" stroke-linejoin="round" opacity="0.62" filter="url(#tealShadow)">
    <path d="M256 286V244"/>
    <path d="M230 268L256 242L282 268"/>
  </g>

  <!-- stars -->
  <g fill="#2EF7EA" opacity="0.72" filter="url(#tealShadow)">
    <circle cx="374" cy="132" r="7"/>
    <circle cx="410" cy="168" r="4"/>
    <circle cx="340" cy="116" r="4"/>
  </g>

</svg>
